# xmcd
#
# Track frame offsets: 
#        150
#        14987
#        30272
#        46130
#        60582
#        75665
#        87217
#        101922
#        116517
#        132207
#        147117
#        162657
#        177082
#        190422
#        206572
#        219252
#
# Disc length: 3127 seconds
#
# Revision: 0
# Processed by: cddbd v1.5.2PL0 Copyright (c) Steve Scherf et al.
# Submitted via: ExactAudioCopy v0.95b4
#
DISCID=db0c3510
DTITLE=Capital do Sol - Valeu a Vaca
DYEAR=1900
DGENRE=Country
TTITLE0=Eu sou Humana
TTITLE1=Pau de dá em Doido
TTITLE2=Coração Sem Juízo
TTITLE3=Valeu a Vaca
TTITLE4=Fugindo de Mim
TTITLE5=Amor a Primeira Vista
TTITLE6=Coisa de Sua Cabeça
TTITLE7=Arrochar o Nó
TTITLE8=Filha do Sol
TTITLE9=Andorinha e Gavião
TTITLE10=Você é Tudo
TTITLE11=Falta de Você
TTITLE12=Feito um Beija-Flor
TTITLE13=Minha Solidão
TTITLE14=As Flores do Sertão
TTITLE15=Você me faz Feliz
EXTD=
EXTT0=
EXTT1=
EXTT2=
EXTT3=
EXTT4=
EXTT5=
EXTT6=
EXTT7=
EXTT8=
EXTT9=
EXTT10=
EXTT11=
EXTT12=
EXTT13=
EXTT14=
EXTT15=
PLAYORDER=
